<?xml version="1.0" encoding="iso-8859-1"?>
<!-- Generator: Adobe Illustrator 19.0.0, SVG Export Plug-In . SVG Version: 6.00 Build 0)  -->
<svg version="1.1" id="Capa_1" xmlns="http://www.w3.org/2000/svg" xmlns:xlink="http://www.w3.org/1999/xlink" x="0px" y="0px"
	 viewBox="0 0 469.326 469.326" style="enable-background:new 0 0 469.326 469.326;" xml:space="preserve">
<g>
	<g>
		<path d="M337.482,396.212c-0.274-3.746-2.836-6.932-6.436-8.004c-42.88-9.68-45.6-68.08-45.6-68.72
			c-0.081-4.904-4.122-8.813-9.026-8.732c-0.111,0.002-0.223,0.006-0.334,0.012c-4.99,0.173-8.894,4.359-8.72,9.349
			c0,0.004,0,0.008,0,0.011c0,2.96,3.12,73.04,59.76,85.76h2C334.106,405.523,337.847,401.191,337.482,396.212z"/>
	</g>
</g>
<g>
	<g>
		<path d="M90.966,373.328l0.08-0.08c-36.56-6.64-44.16-54.16-44.24-54.72c-0.795-4.948-5.452-8.315-10.4-7.52
			s-8.315,5.452-7.52,10.4c0,2.48,9.44,60.96,58.88,69.92h1.6c4.984,0.285,9.256-3.525,9.541-8.51
			C99.179,378.055,95.703,373.9,90.966,373.328z"/>
	</g>
</g>
<g>
	<g>
		<path d="M469.286,326.128c0-61.36-48.48-106.24-115.28-106.24c-4,0-8,0-11.84,0.48c-8-20.96-37.04-82.32-94.48-104.4
			c9.374-4.495,17.341-11.466,23.04-20.16c16-26.56,1.76-64,1.12-65.2c-1.428-3.757-5.201-6.087-9.2-5.68
			c-1.68,0-41.36,3.76-57.76,30.32c-5.213,8.675-7.977,18.6-8,28.72c-7.647-8.077-17.446-13.796-28.24-16.48
			c-3.366-0.713-6.799-1.061-10.24-1.04c-26.64,0-50.56,20.8-51.6,21.68c-3.025,2.619-3.969,6.914-2.32,10.56
			c0.72,1.52,17.28,37.76,48,44.4c3.367,0.706,6.8,1.055,10.24,1.04c15.193-0.79,29.846-5.897,42.24-14.72
			c4.56,44.16-26.16,84.24-38.4,98.24c-13.388-8.526-28.495-13.99-44.24-16h-0.56c-59.711-7.111-113.881,35.53-120.992,95.24
			s35.53,113.881,95.24,120.992c59.711,7.111,113.881-35.53,120.992-95.24c4.214-35.389-9.157-70.601-35.8-94.272
			c14.64-16.88,47.2-60.56,41.92-111.04c58.72,11.04,90.32,71.52,100.64,95.52c-50.56,11.44-84.96,51.28-84.96,103.28
			c-1.677,63.645,48.558,116.599,112.204,118.276S467.609,395.846,469.286,332.2C469.34,330.176,469.34,328.151,469.286,326.128z
			 M163.046,126.048c-2.15,0.017-4.296-0.198-6.4-0.64c-15.2-3.28-26.4-18.96-32-27.84c9.872-7.45,21.67-11.919,34-12.88
			c2.15-0.014,4.295,0.2,6.4,0.64c15.2,3.28,26.48,18.96,32,27.84C187.176,120.621,175.377,125.091,163.046,126.048z
			 M199.606,319.807c0,49.882-40.438,90.32-90.32,90.32c-49.882,0-90.32-40.438-90.32-90.32c0-49.882,40.438-90.32,90.32-90.32
			c2.72,0,5.44,0,8,0.4c8,5.92,42.32,33.44,28.64,72c-1.641,4.715,0.852,9.868,5.567,11.509c0.011,0.004,0.022,0.008,0.033,0.011
			c0.979,0.33,2.007,0.492,3.04,0.48c3.727,0.036,7.095-2.219,8.48-5.68c7.909-22.82,4.08-48.071-10.24-67.52
			C181.652,256.569,199.58,286.879,199.606,319.807z M218.566,107.008c-2.8-10-6.24-28.88,1.92-42.16
			c8.16-13.28,26.64-18.64,36.8-20.64c2.72,10,6.16,29.04-1.92,42.16C247.286,99.488,228.726,105.008,218.566,107.008z
			 M354.006,423.728c-53.588-0.088-96.996-43.532-97.04-97.12c-0.272-39.688,26.626-74.417,65.12-84.08
			c9.44,3.36,46.24,18.8,56.72,57.92c1.303,4.838,6.282,7.703,11.12,6.4s7.703-6.282,6.4-11.12
			c-6.568-23.894-21.835-44.469-42.8-57.68h0.56c56,0,97.12,37.28,97.12,88.56C451.162,380.258,407.657,423.728,354.006,423.728z"/>
	</g>
</g>
<g>
</g>
<g>
</g>
<g>
</g>
<g>
</g>
<g>
</g>
<g>
</g>
<g>
</g>
<g>
</g>
<g>
</g>
<g>
</g>
<g>
</g>
<g>
</g>
<g>
</g>
<g>
</g>
<g>
</g>
</svg>
