<svg width="1002" height="551" viewBox="0 0 1002 551" fill="none" xmlns="http://www.w3.org/2000/svg">
<g opacity="0.81">
<g opacity="0.81">
<path opacity="0.81" d="M227.073 239.223L1 550" stroke="#F9A9AB" stroke-width="2" stroke-miterlimit="10"/>
<path opacity="0.81" d="M244.66 239.223L18.5874 550" stroke="#F9A9AB" stroke-width="2" stroke-miterlimit="10"/>
<path opacity="0.81" d="M262.254 239.223L36.1747 550" stroke="#F9A9AB" stroke-width="2" stroke-miterlimit="10"/>
<path opacity="0.81" d="M279.842 239.223L53.769 550" stroke="#F9A9AB" stroke-width="2" stroke-miterlimit="10"/>
<path opacity="0.81" d="M297.429 239.223L71.3563 550" stroke="#F9A9AB" stroke-width="2" stroke-miterlimit="10"/>
<path opacity="0.81" d="M315.023 239.223L88.9437 550" stroke="#F9A9AB" stroke-width="2" stroke-miterlimit="10"/>
<path opacity="0.81" d="M332.611 239.223L106.538 550" stroke="#F9A9AB" stroke-width="2" stroke-miterlimit="10"/>
<path opacity="0.81" d="M350.198 239.223L124.125 550" stroke="#F9A9AB" stroke-width="2" stroke-miterlimit="10"/>
<path opacity="0.81" d="M367.786 239.223L141.713 550" stroke="#F9A9AB" stroke-width="2" stroke-miterlimit="10"/>
<path opacity="0.81" d="M385.373 239.223L159.3 550" stroke="#F9A9AB" stroke-width="2" stroke-miterlimit="10"/>
<path opacity="0.81" d="M402.967 239.223L176.887 550" stroke="#F9A9AB" stroke-width="2" stroke-miterlimit="10"/>
<path opacity="0.81" d="M420.555 239.223L194.482 550" stroke="#F9A9AB" stroke-width="2" stroke-miterlimit="10"/>
<path opacity="0.81" d="M438.142 239.223L212.069 550" stroke="#F9A9AB" stroke-width="2" stroke-miterlimit="10"/>
<path opacity="0.81" d="M455.736 239.223L229.656 550" stroke="#F9A9AB" stroke-width="2" stroke-miterlimit="10"/>
<path opacity="0.81" d="M473.324 239.223L247.251 550" stroke="#F9A9AB" stroke-width="2" stroke-miterlimit="10"/>
<path opacity="0.81" d="M490.911 239.223L264.838 550" stroke="#F9A9AB" stroke-width="2" stroke-miterlimit="10"/>
<path opacity="0.81" d="M508.505 239.223L282.426 550" stroke="#F9A9AB" stroke-width="2" stroke-miterlimit="10"/>
<path opacity="0.81" d="M526.093 239.223L300.02 550" stroke="#F9A9AB" stroke-width="2" stroke-miterlimit="10"/>
<path opacity="0.81" d="M543.68 239.223L317.607 550" stroke="#F9A9AB" stroke-width="2" stroke-miterlimit="10"/>
<path opacity="0.81" d="M561.267 239.223L335.195 550" stroke="#F9A9AB" stroke-width="2" stroke-miterlimit="10"/>
<path opacity="0.81" d="M578.855 239.223L352.782 550" stroke="#F9A9AB" stroke-width="2" stroke-miterlimit="10"/>
<path opacity="0.81" d="M596.449 239.223L370.369 550" stroke="#F9A9AB" stroke-width="2" stroke-miterlimit="10"/>
<path opacity="0.81" d="M614.036 239.223L387.964 550" stroke="#F9A9AB" stroke-width="2" stroke-miterlimit="10"/>
<path opacity="0.81" d="M631.624 239.223L405.551 550" stroke="#F9A9AB" stroke-width="2" stroke-miterlimit="10"/>
<path opacity="0.81" d="M649.218 239.223L423.138 550" stroke="#F9A9AB" stroke-width="2" stroke-miterlimit="10"/>
<path opacity="0.81" d="M666.805 239.223L440.732 550" stroke="#F9A9AB" stroke-width="2" stroke-miterlimit="10"/>
<path opacity="0.81" d="M684.393 239.223L458.32 550" stroke="#F9A9AB" stroke-width="2" stroke-miterlimit="10"/>
<path opacity="0.81" d="M701.987 239.223L475.907 550" stroke="#F9A9AB" stroke-width="2" stroke-miterlimit="10"/>
<path opacity="0.81" d="M719.575 239.223L493.502 550" stroke="#F9A9AB" stroke-width="2" stroke-miterlimit="10"/>
<path opacity="0.81" d="M737.162 239.223L511.089 550" stroke="#F9A9AB" stroke-width="2" stroke-miterlimit="10"/>
<path opacity="0.81" d="M754.749 239.223L528.676 550" stroke="#F9A9AB" stroke-width="2" stroke-miterlimit="10"/>
<path opacity="0.81" d="M772.337 239.223L546.264 550" stroke="#F9A9AB" stroke-width="2" stroke-miterlimit="10"/>
<path opacity="0.81" d="M789.931 239.223L563.851 550" stroke="#F9A9AB" stroke-width="2" stroke-miterlimit="10"/>
<path opacity="0.81" d="M807.518 239.223L581.446 550" stroke="#F9A9AB" stroke-width="2" stroke-miterlimit="10"/>
<path opacity="0.81" d="M825.105 239.223L599.032 550" stroke="#F9A9AB" stroke-width="2" stroke-miterlimit="10"/>
<path opacity="0.81" d="M842.7 239.223L616.62 550" stroke="#F9A9AB" stroke-width="2" stroke-miterlimit="10"/>
<path opacity="0.81" d="M860.287 239.223L634.214 550" stroke="#F9A9AB" stroke-width="2" stroke-miterlimit="10"/>
<path opacity="0.81" d="M877.875 239.223L651.802 550" stroke="#F9A9AB" stroke-width="2" stroke-miterlimit="10"/>
<path opacity="0.81" d="M895.469 239.223L669.389 550" stroke="#F9A9AB" stroke-width="2" stroke-miterlimit="10"/>
<path opacity="0.81" d="M913.057 239.223L686.984 550" stroke="#F9A9AB" stroke-width="2" stroke-miterlimit="10"/>
<path opacity="0.81" d="M930.644 239.223L704.571 550" stroke="#F9A9AB" stroke-width="2" stroke-miterlimit="10"/>
<path opacity="0.81" d="M948.231 239.223L722.158 550" stroke="#F9A9AB" stroke-width="2" stroke-miterlimit="10"/>
<path opacity="0.81" d="M965.818 239.223L739.745 550" stroke="#F9A9AB" stroke-width="2" stroke-miterlimit="10"/>
<path opacity="0.81" d="M983.412 239.223L757.333 550" stroke="#F9A9AB" stroke-width="2" stroke-miterlimit="10"/>
<path opacity="0.81" d="M1001 239.223L774.927 550" stroke="#F9A9AB" stroke-width="2" stroke-miterlimit="10"/>
</g>
</g>
<rect x="1" y="474.523" width="1000" height="75.2963" fill="#92CDEA"/>
<path d="M269.182 86.0257L3.39539 31.3735L1.33789 44.2672L2.74977 44.2588V253.632L234.821 301.351L269.182 86.0257Z" fill="#EEEEF2"/>
<path d="M181.013 162.348L1.24672 28.2361L1 28.6622V289.911L75.1369 345.22L181.013 162.348Z" fill="#C1E8DC"/>
<path d="M932.307 101.242L946.268 118.766L950.187 134.813L925.582 103.927L932.307 101.242Z" fill="#BFD0FC"/>
<path d="M914.379 108.398L956.715 161.541L960.646 177.633L907.635 111.09L914.379 108.398Z" fill="#BFD0FC"/>
<path d="M896.432 115.562L967.174 204.362L971.093 220.409L889.707 118.246L896.432 115.562Z" fill="#BFD0FC"/>
<path d="M878.504 122.717L977.622 247.137L981.552 263.23L871.759 125.41L878.504 122.717Z" fill="#BFD0FC"/>
<path d="M860.557 129.881L988.081 289.959L991.989 305.96L853.85 132.558L860.557 129.881Z" fill="#BFD0FC"/>
<path d="M825.857 143.912L825.851 143.997L825.833 143.922L825.857 143.912Z" fill="#BFD0FC"/>
<path d="M975.321 314.73L835.95 139.781L842.653 137.036L982.025 311.986L975.321 314.73Z" fill="#BFD0FC"/>
<path d="M830.349 162.409L957.504 322.024L964.188 319.288L826.43 146.364L830.349 162.409Z" fill="#BFD0FC"/>
<path d="M939.666 329.326L840.808 205.231L836.877 189.138L946.37 326.582L939.666 329.326Z" fill="#BFD0FC"/>
<path d="M851.244 247.96L921.868 336.612L928.532 333.884L847.336 231.96L851.244 247.96Z" fill="#BFD0FC"/>
<path d="M904.03 343.914L861.703 290.782L857.773 274.689L910.734 341.17L904.03 343.914Z" fill="#BFD0FC"/>
<path d="M886.193 351.216L872.162 333.603L868.232 317.511L892.896 348.471L886.193 351.216Z" fill="#BFD0FC"/>
<path d="M170.078 0L156.931 14.4623L152.857 28.0762L176.029 2.58643L170.078 0Z" fill="#EFD670"/>
<path d="M185.942 6.89473L146.072 50.753L141.986 64.4058L191.91 9.48844L185.942 6.89473Z" fill="#EFD670"/>
<path d="M201.823 13.7967L135.201 87.0826L131.127 100.697L207.774 16.3832L201.823 13.7967Z" fill="#EFD670"/>
<path d="M217.687 20.6915L124.342 123.374L120.256 137.027L223.655 23.2854L217.687 20.6915Z" fill="#EFD670"/>
<path d="M233.568 27.5937L113.471 159.704L109.409 173.279L239.502 30.1728L233.568 27.5937Z" fill="#EFD670"/>
<path d="M264.266 41.0936L264.268 41.1669L264.287 41.1032L264.266 41.0936Z" fill="#EFD670"/>
<path d="M124.084 181.507L255.338 37.1237L249.409 34.4869L118.155 178.87L124.084 181.507Z" fill="#EFD670"/>
<path d="M259.594 56.7878L139.844 188.515L133.932 185.887L263.667 43.1745L259.594 56.7878Z" fill="#EFD670"/>
<path d="M155.622 195.532L248.723 93.1181L252.808 79.4646L149.692 192.895L155.622 195.532Z" fill="#EFD670"/>
<path d="M237.875 129.37L171.365 202.533L165.47 199.911L241.937 115.795L237.875 129.37Z" fill="#EFD670"/>
<path d="M187.143 209.549L227.004 165.7L231.09 152.047L181.213 206.913L187.143 209.549Z" fill="#EFD670"/>
<path d="M202.92 216.565L216.134 202.03L220.219 188.377L196.991 213.929L202.92 216.565Z" fill="#EFD670"/>
<path d="M1001 480.56V123.862L996.582 119.219L711.216 336.971L912.291 548.251L1001 480.56Z" fill="#F2D0E2"/>
<rect x="1" y="269.027" width="181.71" height="243.144" fill="#BFD0FC"/>
<rect width="123.218" height="122.075" transform="matrix(0.947452 0.319898 -0.256204 0.966623 813.374 250.203)" fill="#EFD670"/>
<path d="M887.158 313.936L871.306 312.052L862.458 316.424L890.398 319.744L887.158 313.936Z" fill="#F9A9AB"/>
<path d="M895.794 329.42L847.721 323.707L838.848 328.092L899.043 335.245L895.794 329.42Z" fill="#F9A9AB"/>
<path d="M904.439 344.92L824.11 335.375L815.263 339.747L907.678 350.729L904.439 344.92Z" fill="#F9A9AB"/>
<path d="M913.075 360.405L800.525 347.03L791.652 351.415L916.323 366.23L913.075 360.405Z" fill="#F9A9AB"/>
<path d="M921.72 375.905L776.914 358.698L768.091 363.058L924.95 381.698L921.72 375.905Z" fill="#F9A9AB"/>
<path d="M938.363 405.954L938.333 405.996L938.374 405.975L938.363 405.954Z" fill="#F9A9AB"/>
<path d="M775.283 378.386L933.542 397.192L930.34 391.372L772.081 372.567L775.283 378.386Z" fill="#F9A9AB"/>
<path d="M928.18 411.012L783.794 393.855L780.601 388.053L937.028 406.64L928.18 411.012Z" fill="#F9A9AB"/>
<path d="M792.314 409.342L904.569 422.681L913.443 418.296L789.112 403.522L792.314 409.342Z" fill="#F9A9AB"/>
<path d="M881.009 434.323L800.816 424.794L824.11 468.249L889.832 429.964L881.009 434.323Z" fill="#F9A9AB"/>
<path d="M809.336 440.28L857.398 445.991L866.272 441.606L806.134 434.46L809.336 440.28Z" fill="#F9A9AB"/>
<path d="M817.855 455.766L833.788 457.659L842.661 453.275L814.654 449.946L817.855 455.766Z" fill="#F9A9AB"/>
</svg>
