<svg width="1002" height="702" viewBox="0 0 1002 702" fill="none" xmlns="http://www.w3.org/2000/svg">
<g opacity="0.81">
<g opacity="0.81">
<path opacity="0.81" d="M227.073 305L1 701.23" stroke="#F9A9AB" stroke-width="2" stroke-miterlimit="10"/>
<path opacity="0.81" d="M244.66 305L18.5874 701.23" stroke="#F9A9AB" stroke-width="2" stroke-miterlimit="10"/>
<path opacity="0.81" d="M262.254 305L36.1747 701.23" stroke="#F9A9AB" stroke-width="2" stroke-miterlimit="10"/>
<path opacity="0.81" d="M279.842 305L53.769 701.23" stroke="#F9A9AB" stroke-width="2" stroke-miterlimit="10"/>
<path opacity="0.81" d="M297.429 305L71.3563 701.23" stroke="#F9A9AB" stroke-width="2" stroke-miterlimit="10"/>
<path opacity="0.81" d="M315.023 305L88.9437 701.23" stroke="#F9A9AB" stroke-width="2" stroke-miterlimit="10"/>
<path opacity="0.81" d="M332.611 305L106.538 701.23" stroke="#F9A9AB" stroke-width="2" stroke-miterlimit="10"/>
<path opacity="0.81" d="M350.198 305L124.125 701.23" stroke="#F9A9AB" stroke-width="2" stroke-miterlimit="10"/>
<path opacity="0.81" d="M367.786 305L141.713 701.23" stroke="#F9A9AB" stroke-width="2" stroke-miterlimit="10"/>
<path opacity="0.81" d="M385.373 305L159.3 701.23" stroke="#F9A9AB" stroke-width="2" stroke-miterlimit="10"/>
<path opacity="0.81" d="M402.967 305L176.887 701.23" stroke="#F9A9AB" stroke-width="2" stroke-miterlimit="10"/>
<path opacity="0.81" d="M420.555 305L194.482 701.23" stroke="#F9A9AB" stroke-width="2" stroke-miterlimit="10"/>
<path opacity="0.81" d="M438.142 305L212.069 701.23" stroke="#F9A9AB" stroke-width="2" stroke-miterlimit="10"/>
<path opacity="0.81" d="M455.736 305L229.656 701.23" stroke="#F9A9AB" stroke-width="2" stroke-miterlimit="10"/>
<path opacity="0.81" d="M473.324 305L247.251 701.23" stroke="#F9A9AB" stroke-width="2" stroke-miterlimit="10"/>
<path opacity="0.81" d="M490.911 305L264.838 701.23" stroke="#F9A9AB" stroke-width="2" stroke-miterlimit="10"/>
<path opacity="0.81" d="M508.505 305L282.426 701.23" stroke="#F9A9AB" stroke-width="2" stroke-miterlimit="10"/>
<path opacity="0.81" d="M526.093 305L300.02 701.23" stroke="#F9A9AB" stroke-width="2" stroke-miterlimit="10"/>
<path opacity="0.81" d="M543.68 305L317.607 701.23" stroke="#F9A9AB" stroke-width="2" stroke-miterlimit="10"/>
<path opacity="0.81" d="M561.267 305L335.195 701.23" stroke="#F9A9AB" stroke-width="2" stroke-miterlimit="10"/>
<path opacity="0.81" d="M578.855 305L352.782 701.23" stroke="#F9A9AB" stroke-width="2" stroke-miterlimit="10"/>
<path opacity="0.81" d="M596.449 305L370.369 701.23" stroke="#F9A9AB" stroke-width="2" stroke-miterlimit="10"/>
<path opacity="0.81" d="M614.036 305L387.964 701.23" stroke="#F9A9AB" stroke-width="2" stroke-miterlimit="10"/>
<path opacity="0.81" d="M631.624 305L405.551 701.23" stroke="#F9A9AB" stroke-width="2" stroke-miterlimit="10"/>
<path opacity="0.81" d="M649.218 305L423.138 701.23" stroke="#F9A9AB" stroke-width="2" stroke-miterlimit="10"/>
<path opacity="0.81" d="M666.805 305L440.732 701.23" stroke="#F9A9AB" stroke-width="2" stroke-miterlimit="10"/>
<path opacity="0.81" d="M684.393 305L458.32 701.23" stroke="#F9A9AB" stroke-width="2" stroke-miterlimit="10"/>
<path opacity="0.81" d="M701.987 305L475.907 701.23" stroke="#F9A9AB" stroke-width="2" stroke-miterlimit="10"/>
<path opacity="0.81" d="M719.575 305L493.502 701.23" stroke="#F9A9AB" stroke-width="2" stroke-miterlimit="10"/>
<path opacity="0.81" d="M737.162 305L511.089 701.23" stroke="#F9A9AB" stroke-width="2" stroke-miterlimit="10"/>
<path opacity="0.81" d="M754.749 305L528.676 701.23" stroke="#F9A9AB" stroke-width="2" stroke-miterlimit="10"/>
<path opacity="0.81" d="M772.337 305L546.264 701.23" stroke="#F9A9AB" stroke-width="2" stroke-miterlimit="10"/>
<path opacity="0.81" d="M789.931 305L563.851 701.23" stroke="#F9A9AB" stroke-width="2" stroke-miterlimit="10"/>
<path opacity="0.81" d="M807.518 305L581.446 701.23" stroke="#F9A9AB" stroke-width="2" stroke-miterlimit="10"/>
<path opacity="0.81" d="M825.105 305L599.032 701.23" stroke="#F9A9AB" stroke-width="2" stroke-miterlimit="10"/>
<path opacity="0.81" d="M842.7 305L616.62 701.23" stroke="#F9A9AB" stroke-width="2" stroke-miterlimit="10"/>
<path opacity="0.81" d="M860.287 305L634.214 701.23" stroke="#F9A9AB" stroke-width="2" stroke-miterlimit="10"/>
<path opacity="0.81" d="M877.875 305L651.802 701.23" stroke="#F9A9AB" stroke-width="2" stroke-miterlimit="10"/>
<path opacity="0.81" d="M895.469 305L669.389 701.23" stroke="#F9A9AB" stroke-width="2" stroke-miterlimit="10"/>
<path opacity="0.81" d="M913.057 305L686.984 701.23" stroke="#F9A9AB" stroke-width="2" stroke-miterlimit="10"/>
<path opacity="0.81" d="M930.644 305L704.571 701.23" stroke="#F9A9AB" stroke-width="2" stroke-miterlimit="10"/>
<path opacity="0.81" d="M948.231 305L722.158 701.23" stroke="#F9A9AB" stroke-width="2" stroke-miterlimit="10"/>
<path opacity="0.81" d="M965.818 305L739.745 701.23" stroke="#F9A9AB" stroke-width="2" stroke-miterlimit="10"/>
<path opacity="0.81" d="M983.412 305L757.333 701.23" stroke="#F9A9AB" stroke-width="2" stroke-miterlimit="10"/>
<path opacity="0.81" d="M1001 305L774.927 701.23" stroke="#F9A9AB" stroke-width="2" stroke-miterlimit="10"/>
</g>
</g>
<rect x="1" y="605" width="1000" height="96" fill="#92CDEA"/>
<path d="M269.182 109.679L3.39539 40L1.33789 56.439L2.74977 56.4283V323.371L234.821 384.212L269.182 109.679Z" fill="#EEEEF2"/>
<path d="M181.013 206.988L1.24672 36L1 36.5433V369.626L75.1369 440.143L181.013 206.988Z" fill="#C1E8DC"/>
<path d="M932.307 129.08L946.268 151.423L950.187 171.881L925.582 132.503L932.307 129.08Z" fill="#BFD0FC"/>
<path d="M914.379 138.204L956.715 205.959L960.646 226.476L907.635 141.636L914.379 138.204Z" fill="#BFD0FC"/>
<path d="M896.432 147.337L967.174 260.554L971.093 281.013L889.707 150.759L896.432 147.337Z" fill="#BFD0FC"/>
<path d="M878.504 156.46L977.622 315.091L981.552 335.608L871.759 159.893L878.504 156.46Z" fill="#BFD0FC"/>
<path d="M860.557 165.594L988.081 369.687L991.989 390.088L853.85 169.007L860.557 165.594Z" fill="#BFD0FC"/>
<path d="M825.857 183.483L825.852 183.591L825.833 183.495L825.857 183.483Z" fill="#BFD0FC"/>
<path d="M975.321 401.269L835.95 178.215L842.653 174.717L982.025 397.771L975.321 401.269Z" fill="#BFD0FC"/>
<path d="M830.349 207.066L957.504 410.568L964.188 407.08L826.43 186.608L830.349 207.066Z" fill="#BFD0FC"/>
<path d="M939.666 419.879L840.808 261.662L836.877 241.144L946.37 416.38L939.666 419.879Z" fill="#BFD0FC"/>
<path d="M851.244 316.14L921.868 429.168L928.532 425.689L847.336 295.74L851.244 316.14Z" fill="#BFD0FC"/>
<path d="M904.03 438.478L861.703 370.737L857.773 350.219L910.734 434.979L904.03 438.478Z" fill="#BFD0FC"/>
<path d="M886.193 447.787L872.162 425.331L868.232 404.815L892.896 444.288L886.193 447.787Z" fill="#BFD0FC"/>
<path d="M170.078 0L156.931 18.439L152.857 35.7961L176.029 3.29761L170.078 0Z" fill="#EFD670"/>
<path d="M185.942 8.79053L146.072 64.7083L141.986 82.115L191.91 12.0974L185.942 8.79053Z" fill="#EFD670"/>
<path d="M201.823 17.5903L135.201 111.027L131.127 128.385L207.774 20.8879L201.823 17.5903Z" fill="#EFD670"/>
<path d="M217.687 26.3809L124.342 157.297L120.256 174.704L223.655 29.688L217.687 26.3809Z" fill="#EFD670"/>
<path d="M233.568 35.1809L113.471 203.616L109.409 220.925L239.502 38.4692L233.568 35.1809Z" fill="#EFD670"/>
<path d="M264.266 52.3928L264.268 52.4863L264.287 52.405L264.266 52.3928Z" fill="#EFD670"/>
<path d="M124.084 231.415L255.338 47.3313L249.409 43.9695L118.155 228.053L124.084 231.415Z" fill="#EFD670"/>
<path d="M259.594 72.4023L139.844 240.35L133.932 236.999L263.667 55.0459L259.594 72.4023Z" fill="#EFD670"/>
<path d="M155.622 249.296L248.723 118.722L252.808 101.314L149.692 245.934L155.622 249.296Z" fill="#EFD670"/>
<path d="M237.875 164.942L171.365 258.222L165.47 254.88L241.937 147.635L237.875 164.942Z" fill="#EFD670"/>
<path d="M187.143 267.168L227.004 211.262L231.09 193.854L181.213 263.806L187.143 267.168Z" fill="#EFD670"/>
<path d="M202.92 276.113L216.134 257.581L220.219 240.174L196.991 272.751L202.92 276.113Z" fill="#EFD670"/>
<path d="M1001 612.697V157.919L996.582 152L711.216 429.626L912.291 699L1001 612.697Z" fill="#F2D0E2"/>
<rect x="1" y="343" width="181.71" height="310" fill="#BFD0FC"/>
<rect width="127.101" height="153.663" transform="matrix(0.918509 0.3954 -0.203537 0.979067 813.374 319)" fill="#EFD670"/>
<path d="M887.158 400.256L871.306 397.855L862.458 403.429L890.398 407.662L887.158 400.256Z" fill="#F9A9AB"/>
<path d="M895.794 419.998L847.721 412.715L838.848 418.305L899.043 427.425L895.794 419.998Z" fill="#F9A9AB"/>
<path d="M904.439 439.761L824.11 427.591L815.263 433.166L907.678 447.167L904.439 439.761Z" fill="#F9A9AB"/>
<path d="M913.075 459.503L800.525 442.451L791.652 448.042L916.323 466.929L913.075 459.503Z" fill="#F9A9AB"/>
<path d="M921.72 479.265L776.914 457.327L768.091 462.886L924.95 486.65L921.72 479.265Z" fill="#F9A9AB"/>
<path d="M938.362 517.577L938.333 517.63L938.374 517.603L938.362 517.577Z" fill="#F9A9AB"/>
<path d="M775.283 482.429L933.542 506.405L930.34 498.985L772.081 475.009L775.283 482.429Z" fill="#F9A9AB"/>
<path d="M928.18 524.026L783.794 502.151L780.601 494.753L937.028 518.452L928.18 524.026Z" fill="#F9A9AB"/>
<path d="M792.314 521.896L904.569 538.902L913.443 533.312L789.112 514.475L792.314 521.896Z" fill="#F9A9AB"/>
<path d="M881.009 553.746L800.816 541.597L824.11 597L889.832 548.188L881.009 553.746Z" fill="#F9A9AB"/>
<path d="M809.336 561.341L857.398 568.623L866.272 563.032L806.134 553.921L809.336 561.341Z" fill="#F9A9AB"/>
<path d="M817.855 581.085L833.788 583.499L842.661 577.908L814.654 573.665L817.855 581.085Z" fill="#F9A9AB"/>
</svg>
