<svg width="100" height="74" viewBox="0 0 100 74" fill="none" xmlns="http://www.w3.org/2000/svg">
<path d="M100 50C100 77.6142 77.6142 73 50 73C22.3858 73 0 77.6142 0 50C0 22.3858 22.3858 0 50 0C77.6142 0 100 22.3858 100 50Z" fill="#BABFE7"/>
<path d="M100 50C100 77.6142 77.6142 73 50 73C22.3858 73 0 77.6142 0 50C0 22.3858 22.3858 0 50 0C77.6142 0 100 22.3858 100 50Z" fill="#BABFE7"/>
<path d="M100 50C100 77.6142 77.6142 73 50 73C22.3858 73 0 77.6142 0 50C0 22.3858 22.3858 0 50 0C77.6142 0 100 22.3858 100 50Z" fill="#BABFE7"/>
</svg>
