<svg width="100" height="74" viewBox="0 0 100 74" fill="none" xmlns="http://www.w3.org/2000/svg">
<path d="M100 50.0003C100 77.6148 77.6142 73.0005 50 73.0005C22.3858 73.0005 0 77.6148 0 50.0003C0 22.3859 22.3858 0 50 0C77.6142 0 100 22.3859 100 50.0003Z" fill="#C1E8DC"/>
<path d="M100 50.0003C100 77.6148 77.6142 73.0005 50 73.0005C22.3858 73.0005 0 77.6148 0 50.0003C0 22.3859 22.3858 0 50 0C77.6142 0 100 22.3859 100 50.0003Z" fill="#C1E8DC"/>
<path d="M100 50.0003C100 77.6148 77.6142 73.0005 50 73.0005C22.3858 73.0005 0 77.6148 0 50.0003C0 22.3859 22.3858 0 50 0C77.6142 0 100 22.3859 100 50.0003Z" fill="#C1E8DC"/>
</svg>
