<svg id="Capa_1" enable-background="new 0 0 512 512" height="512" viewBox="0 0 512 512" width="512" xmlns="http://www.w3.org/2000/svg"><g><path d="m415.394 105.984c7.34-10.854 11.63-23.931 11.63-37.992 0-37.491-30.501-67.992-67.992-67.992-44.21 0-82.813 24.437-103.032 60.507-20.219-36.07-58.823-60.507-103.032-60.507-37.491 0-67.992 30.501-67.992 67.992 0 14.061 4.29 27.138 11.63 37.992h-96.606v406.016h512v-406.016zm66.606 70.056h-195.56c-7.403-12.801-12.255-26.32-14.31-40.056h209.87zm-260.913 53.36c7.424-7.076 14.068-14.572 19.913-22.393v96.993h-211v-97.96h172.079c-.56.55-1.118 1.1-1.689 1.645-23.472 22.37-53.242 36.268-77.692 36.268v30c32.339-.001 69.12-16.656 98.389-44.553zm49.913-22.393c5.845 7.821 12.489 15.317 19.913 22.393 29.27 27.896 66.051 44.552 98.39 44.552v-30c-24.45 0-54.22-13.897-77.692-36.268-.571-.544-1.129-1.095-1.689-1.645h172.078v97.961h-211zm88.032-177.007c20.949 0 37.992 17.043 37.992 37.992s-17.043 37.992-37.992 37.992h-87.211c5.891-42.863 42.756-75.984 87.211-75.984zm-244.056 37.992c0-20.949 17.043-37.992 37.992-37.992 44.455 0 81.32 33.121 87.21 75.984h-87.211c-20.948 0-37.991-17.043-37.991-37.992zm124.894 67.992c-2.056 13.736-6.907 27.255-14.31 40.056h-195.56v-40.056zm-209.87 198.016h211v148h-211zm241 148v-148h211v148z"/></g></svg>