<svg width="1150" height="328" viewBox="0 0 1150 328" fill="none" xmlns="http://www.w3.org/2000/svg">
<rect x="280.5" y="28.5002" width="397" height="270" fill="#C1E8DC" stroke="#C1E8DC" stroke-width="3"/>
<rect x="4.11814" y="126.397" width="341.688" height="173.87" transform="rotate(-11.6962 4.11814 126.397)" fill="#F9A9AB" stroke="#F9A9AB" stroke-width="6"/>
<rect x="739.907" y="2.95333" width="415.267" height="242.42" transform="rotate(11.6501 739.907 2.95333)" fill="#BFD0FC" stroke="#BFD0FC" stroke-width="5"/>
<rect x="411.5" y="85.4995" width="433" height="213" fill="#EFD670" stroke="#EFD670" stroke-width="3"/>
<path d="M591.072 108.705C591.072 109.291 590.861 109.794 590.439 110.216C590.029 110.626 589.531 110.832 588.945 110.832H584.656V131.873C584.656 132.458 584.451 132.957 584.041 133.367C583.619 133.789 583.115 134 582.529 134H582.494C581.908 134 581.404 133.789 580.982 133.367C580.572 132.957 580.367 132.458 580.367 131.873V110.832H576.078C575.504 110.832 575.006 110.626 574.584 110.216C574.162 109.794 573.951 109.291 573.951 108.705V108.669C573.951 108.083 574.162 107.58 574.584 107.158C575.006 106.748 575.504 106.542 576.078 106.542H588.945C589.531 106.542 590.029 106.748 590.439 107.158C590.861 107.58 591.072 108.083 591.072 108.669V108.705ZM596.416 106.542C596.99 106.542 597.488 106.748 597.91 107.158C598.332 107.58 598.543 108.083 598.543 108.669V131.873C598.543 132.47 598.332 132.968 597.91 133.367C597.488 133.789 596.99 134 596.416 134H596.363C595.789 134 595.291 133.789 594.869 133.367C594.447 132.968 594.236 132.47 594.236 131.873V108.669C594.236 108.083 594.447 107.58 594.869 107.158C595.291 106.748 595.789 106.542 596.363 106.542H596.416ZM616.068 106.542C617.229 106.542 618.365 106.683 619.479 106.964C620.557 107.246 621.096 107.931 621.096 109.021V109.074C621.096 109.765 620.814 110.328 620.252 110.761C619.877 111.054 619.467 111.201 619.021 111.201C618.834 111.201 618.641 111.177 618.441 111.13C617.656 110.931 616.865 110.832 616.068 110.832C613.467 110.832 611.246 111.751 609.406 113.591C607.566 115.431 606.646 117.658 606.646 120.271C606.646 122.884 607.566 125.111 609.406 126.951C611.246 128.779 613.467 129.693 616.068 129.693C616.865 129.693 617.656 129.599 618.441 129.412C618.641 129.365 618.834 129.341 619.021 129.341C619.467 129.341 619.877 129.488 620.252 129.781C620.814 130.203 621.096 130.765 621.096 131.468V131.503C621.096 132.605 620.557 133.296 619.479 133.578C618.365 133.859 617.229 134 616.068 134C612.283 134 609.049 132.658 606.365 129.974C603.682 127.291 602.34 124.056 602.34 120.271C602.34 116.486 603.682 113.251 606.365 110.568C609.049 107.884 612.283 106.542 616.068 106.542ZM626.264 106.542C626.838 106.542 627.336 106.748 627.758 107.158C628.18 107.58 628.391 108.083 628.391 108.669V117.248H630.219C631.824 117.248 633.189 116.685 634.314 115.56C635.451 114.423 636.025 113.058 636.037 111.464V108.669C636.037 108.083 636.248 107.58 636.67 107.158C637.08 106.748 637.578 106.542 638.164 106.542H638.217C638.791 106.542 639.289 106.748 639.711 107.158C640.133 107.58 640.344 108.083 640.344 108.669V111.464C640.344 114.851 639.195 117.4 636.898 119.111C637.941 119.744 638.896 120.816 639.764 122.328C640.654 123.886 641.1 125.568 641.1 127.373V131.873C641.1 132.458 640.895 132.957 640.484 133.367C640.062 133.789 639.559 134 638.973 134H638.938C638.352 134 637.848 133.789 637.426 133.367C637.016 132.957 636.811 132.458 636.811 131.873V127.373C636.799 125.779 636.225 124.414 635.088 123.277C633.951 122.152 632.58 121.589 630.975 121.589H628.391V131.873C628.391 132.47 628.18 132.968 627.758 133.367C627.336 133.789 626.838 134 626.264 134H626.211C625.637 134 625.139 133.789 624.717 133.367C624.295 132.968 624.084 132.47 624.084 131.873V108.669C624.084 108.083 624.295 107.58 624.717 107.158C625.139 106.748 625.637 106.542 626.211 106.542H626.264ZM648.746 118.126H657.131C657.705 118.126 658.203 118.332 658.625 118.742C659.047 119.164 659.258 119.667 659.258 120.253V120.289C659.258 120.875 659.047 121.378 658.625 121.8C658.203 122.21 657.705 122.416 657.131 122.416H648.746V127.583C648.746 128.169 648.951 128.667 649.361 129.078C649.771 129.488 650.27 129.693 650.855 129.693H657.131C657.705 129.693 658.203 129.904 658.625 130.326C659.047 130.748 659.258 131.251 659.258 131.837V131.873C659.258 132.47 659.047 132.968 658.625 133.367C658.203 133.789 657.705 134 657.131 134H650.855C649.086 134 647.574 133.373 646.32 132.119C645.066 130.865 644.439 129.353 644.439 127.583V112.958C644.439 111.189 645.066 109.677 646.32 108.423C647.574 107.169 649.086 106.542 650.855 106.542H657.131C657.705 106.542 658.203 106.753 658.625 107.175C659.047 107.574 659.258 108.072 659.258 108.669V108.705C659.258 109.291 659.047 109.794 658.625 110.216C658.203 110.638 657.705 110.849 657.131 110.849H650.855C650.27 110.849 649.771 111.054 649.361 111.464C648.951 111.875 648.746 112.373 648.746 112.958V118.126ZM678.049 108.705C678.049 109.291 677.838 109.794 677.416 110.216C677.006 110.626 676.508 110.832 675.922 110.832H671.633V131.873C671.633 132.458 671.428 132.957 671.018 133.367C670.596 133.789 670.092 134 669.506 134H669.471C668.885 134 668.381 133.789 667.959 133.367C667.549 132.957 667.344 132.458 667.344 131.873V110.832H663.055C662.48 110.832 661.982 110.626 661.561 110.216C661.139 109.794 660.928 109.291 660.928 108.705V108.669C660.928 108.083 661.139 107.58 661.561 107.158C661.982 106.748 662.48 106.542 663.055 106.542H675.922C676.508 106.542 677.006 106.748 677.416 107.158C677.838 107.58 678.049 108.083 678.049 108.669V108.705Z" fill="white"/>
<path d="M428.072 44.7051C428.072 45.291 427.861 45.7949 427.439 46.2168C427.029 46.627 426.531 46.832 425.945 46.832H421.656V67.873C421.656 68.459 421.451 68.957 421.041 69.3672C420.619 69.7891 420.115 70 419.529 70H419.494C418.908 70 418.404 69.7891 417.982 69.3672C417.572 68.957 417.367 68.459 417.367 67.873V46.832H413.078C412.504 46.832 412.006 46.627 411.584 46.2168C411.162 45.7949 410.951 45.291 410.951 44.7051V44.6699C410.951 44.084 411.162 43.5801 411.584 43.1582C412.006 42.748 412.504 42.543 413.078 42.543H425.945C426.531 42.543 427.029 42.748 427.439 43.1582C427.861 43.5801 428.072 44.084 428.072 44.6699V44.7051ZM433.416 42.543C433.99 42.543 434.488 42.748 434.91 43.1582C435.332 43.5801 435.543 44.084 435.543 44.6699V67.873C435.543 68.4707 435.332 68.9688 434.91 69.3672C434.488 69.7891 433.99 70 433.416 70H433.363C432.789 70 432.291 69.7891 431.869 69.3672C431.447 68.9688 431.236 68.4707 431.236 67.873V44.6699C431.236 44.084 431.447 43.5801 431.869 43.1582C432.291 42.748 432.789 42.543 433.363 42.543H433.416ZM453.068 42.543C454.229 42.543 455.365 42.6836 456.479 42.9648C457.557 43.2461 458.096 43.9316 458.096 45.0215V45.0742C458.096 45.7656 457.814 46.3281 457.252 46.7617C456.877 47.0547 456.467 47.2012 456.021 47.2012C455.834 47.2012 455.641 47.1777 455.441 47.1309C454.656 46.9316 453.865 46.832 453.068 46.832C450.467 46.832 448.246 47.752 446.406 49.5918C444.566 51.4316 443.646 53.6582 443.646 56.2715C443.646 58.8848 444.566 61.1113 446.406 62.9512C448.246 64.7793 450.467 65.6934 453.068 65.6934C453.865 65.6934 454.656 65.5996 455.441 65.4121C455.641 65.3652 455.834 65.3418 456.021 65.3418C456.467 65.3418 456.877 65.4883 457.252 65.7812C457.814 66.2031 458.096 66.7656 458.096 67.4688V67.5039C458.096 68.6055 457.557 69.2969 456.479 69.5781C455.365 69.8594 454.229 70 453.068 70C449.283 70 446.049 68.6582 443.365 65.9746C440.682 63.291 439.34 60.0566 439.34 56.2715C439.34 52.4863 440.682 49.252 443.365 46.5684C446.049 43.8848 449.283 42.543 453.068 42.543ZM463.264 42.543C463.838 42.543 464.336 42.748 464.758 43.1582C465.18 43.5801 465.391 44.084 465.391 44.6699V53.248H467.219C468.824 53.248 470.189 52.6855 471.314 51.5605C472.451 50.4238 473.025 49.0586 473.037 47.4648V44.6699C473.037 44.084 473.248 43.5801 473.67 43.1582C474.08 42.748 474.578 42.543 475.164 42.543H475.217C475.791 42.543 476.289 42.748 476.711 43.1582C477.133 43.5801 477.344 44.084 477.344 44.6699V47.4648C477.344 50.8516 476.195 53.4004 473.898 55.1113C474.941 55.7441 475.896 56.8164 476.764 58.3281C477.654 59.8867 478.1 61.5684 478.1 63.373V67.873C478.1 68.459 477.895 68.957 477.484 69.3672C477.062 69.7891 476.559 70 475.973 70H475.938C475.352 70 474.848 69.7891 474.426 69.3672C474.016 68.957 473.811 68.459 473.811 67.873V63.373C473.799 61.7793 473.225 60.4141 472.088 59.2773C470.951 58.1523 469.58 57.5898 467.975 57.5898H465.391V67.873C465.391 68.4707 465.18 68.9688 464.758 69.3672C464.336 69.7891 463.838 70 463.264 70H463.211C462.637 70 462.139 69.7891 461.717 69.3672C461.295 68.9688 461.084 68.4707 461.084 67.873V44.6699C461.084 44.084 461.295 43.5801 461.717 43.1582C462.139 42.748 462.637 42.543 463.211 42.543H463.264ZM485.746 54.127H494.131C494.705 54.127 495.203 54.332 495.625 54.7422C496.047 55.1641 496.258 55.668 496.258 56.2539V56.2891C496.258 56.875 496.047 57.3789 495.625 57.8008C495.203 58.2109 494.705 58.416 494.131 58.416H485.746V63.584C485.746 64.1699 485.951 64.668 486.361 65.0781C486.771 65.4883 487.27 65.6934 487.855 65.6934H494.131C494.705 65.6934 495.203 65.9043 495.625 66.3262C496.047 66.748 496.258 67.252 496.258 67.8379V67.873C496.258 68.4707 496.047 68.9688 495.625 69.3672C495.203 69.7891 494.705 70 494.131 70H487.855C486.086 70 484.574 69.373 483.32 68.1191C482.066 66.8652 481.439 65.3535 481.439 63.584V48.959C481.439 47.1895 482.066 45.6777 483.32 44.4238C484.574 43.1699 486.086 42.543 487.855 42.543H494.131C494.705 42.543 495.203 42.7539 495.625 43.1758C496.047 43.5742 496.258 44.0723 496.258 44.6699V44.7051C496.258 45.291 496.047 45.7949 495.625 46.2168C495.203 46.6387 494.705 46.8496 494.131 46.8496H487.855C487.27 46.8496 486.771 47.0547 486.361 47.4648C485.951 47.875 485.746 48.373 485.746 48.959V54.127ZM515.049 44.7051C515.049 45.291 514.838 45.7949 514.416 46.2168C514.006 46.627 513.508 46.832 512.922 46.832H508.633V67.873C508.633 68.459 508.428 68.957 508.018 69.3672C507.596 69.7891 507.092 70 506.506 70H506.471C505.885 70 505.381 69.7891 504.959 69.3672C504.549 68.957 504.344 68.459 504.344 67.873V46.832H500.055C499.48 46.832 498.982 46.627 498.561 46.2168C498.139 45.7949 497.928 45.291 497.928 44.7051V44.6699C497.928 44.084 498.139 43.5801 498.561 43.1582C498.982 42.748 499.48 42.543 500.055 42.543H512.922C513.508 42.543 514.006 42.748 514.416 43.1582C514.838 43.5801 515.049 44.084 515.049 44.6699V44.7051Z" fill="white"/>
<path d="M127.757 116.219C127.874 116.794 127.767 117.329 127.437 117.827C127.117 118.31 126.67 118.61 126.095 118.726L121.892 119.578L126.071 140.2C126.187 140.774 126.085 141.303 125.765 141.787C125.435 142.284 124.983 142.591 124.409 142.707L124.374 142.714C123.8 142.831 123.264 142.724 122.767 142.394C122.284 142.074 121.984 141.626 121.867 141.052L117.688 120.43L113.484 121.282C112.922 121.396 112.393 121.294 111.898 120.976C111.401 120.646 111.094 120.194 110.977 119.62L110.97 119.586C110.854 119.011 110.961 118.476 111.29 117.978C111.622 117.493 112.07 117.193 112.633 117.079L125.243 114.523C125.818 114.407 126.347 114.509 126.83 114.829C127.327 115.159 127.634 115.611 127.75 116.185L127.757 116.219ZM132.565 113.039C133.128 112.925 133.657 113.027 134.152 113.345C134.649 113.675 134.956 114.127 135.072 114.701L139.681 137.442C139.8 138.028 139.692 138.558 139.357 139.032C139.028 139.529 138.582 139.835 138.019 139.949L137.967 139.959C137.404 140.074 136.874 139.966 136.377 139.636C135.884 139.329 135.579 138.883 135.46 138.297L130.851 115.557C130.735 114.982 130.842 114.447 131.171 113.949C131.503 113.463 131.951 113.164 132.514 113.05L132.565 113.039ZM151.826 109.136C152.963 108.905 154.105 108.817 155.252 108.872C156.365 108.933 157.029 109.498 157.246 110.566L157.256 110.618C157.393 111.296 157.229 111.903 156.764 112.439C156.455 112.801 156.082 113.026 155.646 113.114C155.462 113.152 155.268 113.167 155.063 113.161C154.254 113.121 153.459 113.181 152.678 113.339C150.128 113.856 148.134 115.199 146.697 117.367C145.259 119.536 144.8 121.901 145.319 124.462C145.838 127.023 147.182 129.023 149.35 130.46C151.516 131.887 153.874 132.342 156.424 131.825C157.205 131.667 157.962 131.418 158.694 131.078C158.88 130.992 159.065 130.931 159.249 130.894C159.685 130.805 160.116 130.867 160.542 131.08C161.177 131.382 161.564 131.877 161.704 132.566L161.711 132.601C161.93 133.68 161.539 134.465 160.538 134.955C159.503 135.452 158.417 135.815 157.28 136.046C153.57 136.797 150.133 136.125 146.97 134.028C143.807 131.931 141.85 129.027 141.098 125.317C140.346 121.608 141.019 118.171 143.116 115.008C145.213 111.845 148.116 109.887 151.826 109.136ZM161.818 107.111C162.381 106.997 162.91 107.099 163.405 107.417C163.902 107.747 164.209 108.198 164.325 108.773L166.029 117.18L167.821 116.817C169.394 116.498 170.621 115.676 171.5 114.349C172.388 113.01 172.68 111.558 172.375 109.993L171.819 107.254C171.703 106.68 171.81 106.144 172.139 105.647C172.46 105.163 172.907 104.863 173.482 104.747L173.533 104.736C174.096 104.622 174.625 104.724 175.12 105.043C175.617 105.372 175.924 105.824 176.04 106.399L176.595 109.138C177.268 112.457 176.649 115.183 174.737 117.316C175.885 117.729 177.034 118.591 178.185 119.9C179.367 121.251 180.137 122.81 180.496 124.579L181.39 128.989C181.506 129.564 181.404 130.092 181.083 130.576C180.754 131.073 180.302 131.38 179.728 131.496L179.693 131.503C179.119 131.62 178.583 131.513 178.086 131.183C177.602 130.863 177.302 130.415 177.186 129.841L176.292 125.431C175.964 123.871 175.13 122.647 173.79 121.759C172.453 120.882 170.997 120.603 169.424 120.922L166.891 121.435L168.934 131.514C169.053 132.099 168.945 132.629 168.61 133.104C168.281 133.601 167.835 133.907 167.272 134.021L167.22 134.031C166.657 134.145 166.127 134.037 165.63 133.708C165.137 133.401 164.832 132.955 164.713 132.369L160.104 109.628C159.988 109.054 160.095 108.518 160.424 108.021C160.756 107.535 161.204 107.235 161.767 107.121L161.818 107.111ZM186.154 113.998L194.371 112.333C194.934 112.219 195.463 112.321 195.958 112.639C196.455 112.969 196.762 113.421 196.878 113.995L196.885 114.029C197.002 114.604 196.895 115.14 196.565 115.637C196.233 116.123 195.786 116.422 195.223 116.537L187.005 118.202L188.032 123.267C188.148 123.841 188.448 124.289 188.932 124.609C189.415 124.93 189.944 125.032 190.518 124.915L196.669 123.669C197.231 123.555 197.761 123.663 198.259 123.992C198.756 124.322 199.063 124.774 199.179 125.348L199.186 125.383C199.305 125.968 199.197 126.498 198.863 126.973C198.533 127.47 198.087 127.776 197.524 127.89L191.374 129.136C189.639 129.488 188.033 129.173 186.555 128.194C185.077 127.214 184.163 125.857 183.811 124.122L180.906 109.789C180.555 108.054 180.869 106.448 181.849 104.97C182.829 103.492 184.186 102.578 185.92 102.226L192.07 100.98C192.633 100.866 193.163 100.973 193.66 101.303C194.153 101.61 194.459 102.056 194.577 102.642L194.584 102.676C194.701 103.251 194.594 103.786 194.264 104.284C193.935 104.781 193.489 105.087 192.926 105.201L186.775 106.447C186.201 106.563 185.754 106.863 185.433 107.347C185.113 107.83 185.011 108.359 185.127 108.933L186.154 113.998ZM213.001 98.944C213.117 99.5183 213.011 100.054 212.681 100.551C212.361 101.035 211.913 101.335 211.339 101.451L207.135 102.303L211.315 122.925C211.431 123.499 211.329 124.028 211.008 124.511C210.679 125.009 210.227 125.315 209.652 125.432L209.618 125.439C209.044 125.555 208.508 125.448 208.011 125.119C207.527 124.798 207.227 124.351 207.111 123.777L202.932 103.155L198.728 104.007C198.165 104.121 197.636 104.019 197.142 103.701C196.644 103.371 196.337 102.919 196.221 102.345L196.214 102.31C196.098 101.736 196.204 101.2 196.534 100.703C196.866 100.217 197.313 99.9172 197.876 99.8031L210.487 97.2474C211.061 97.131 211.59 97.2331 212.074 97.5536C212.571 97.8833 212.878 98.3353 212.994 98.9095L213.001 98.944Z" fill="white"/>
<path d="M902.778 65.4651C902.682 66.043 902.39 66.5052 901.905 66.8517C901.433 67.1886 900.907 67.3087 900.33 67.212L896.099 66.5045L892.628 87.2572C892.532 87.8351 892.247 88.2925 891.775 88.6294C891.289 88.9759 890.757 89.1008 890.18 89.0041L890.145 88.9983C889.567 88.9017 889.105 88.6105 888.758 88.1248C888.421 87.6526 888.301 87.1276 888.398 86.5496L891.869 65.7969L887.639 65.0894C887.072 64.9946 886.615 64.7102 886.266 64.2361C885.92 63.7504 885.795 63.2186 885.892 62.6407L885.898 62.606C885.994 62.0281 886.285 61.5659 886.771 61.2194C887.255 60.8844 887.78 60.7643 888.346 60.8591L901.037 62.9817C901.615 63.0784 902.072 63.3628 902.409 63.835C902.756 64.3207 902.881 64.8525 902.784 65.4304L902.778 65.4651ZM908.405 64.2141C908.972 64.3088 909.429 64.5933 909.778 65.0674C910.124 65.5531 910.249 66.0849 910.152 66.6628L906.325 89.548C906.226 90.1375 905.936 90.5939 905.454 90.9173C904.968 91.2638 904.442 91.3897 903.876 91.295L903.824 91.2863C903.258 91.1915 902.801 90.9013 902.455 90.4156C902.104 89.9531 901.978 89.427 902.077 88.8376L905.905 65.9524C906.001 65.3744 906.293 64.9122 906.778 64.5657C907.262 64.2308 907.787 64.1107 908.353 64.2054L908.405 64.2141ZM927.789 67.4561C928.933 67.6475 930.031 67.9737 931.082 68.4347C932.099 68.89 932.518 69.6551 932.338 70.73L932.329 70.782C932.215 71.4639 931.845 71.9723 931.219 72.3072C930.801 72.5343 930.372 72.6111 929.933 72.5376C929.748 72.5067 929.561 72.4517 929.372 72.3726C928.631 72.0466 927.867 71.8178 927.081 71.6864C924.515 71.2572 922.173 71.7982 920.055 73.3093C917.937 74.8204 916.662 76.8647 916.231 79.4422C915.8 82.0197 916.34 84.3675 917.851 86.4857C919.364 88.5923 921.404 89.8601 923.97 90.2893C924.755 90.4208 925.551 90.4588 926.356 90.4034C926.561 90.39 926.755 90.3988 926.94 90.4297C927.379 90.5032 927.76 90.7153 928.081 91.0661C928.566 91.575 928.751 92.1762 928.635 92.8697L928.629 92.9044C928.448 93.9909 927.802 94.5839 926.692 94.6834C925.548 94.7771 924.403 94.7283 923.259 94.5369C919.526 93.9125 916.557 92.0555 914.353 88.966C912.149 85.8765 911.359 82.4651 911.983 78.7318C912.608 74.9985 914.465 72.0298 917.554 69.8256C920.644 67.6215 924.055 66.8317 927.789 67.4561ZM937.844 69.138C938.411 69.2327 938.868 69.5171 939.216 69.9913C939.563 70.4769 939.688 71.0087 939.591 71.5867L938.176 80.0473L939.979 80.3488C941.563 80.6137 943.002 80.2841 944.297 79.3601C945.606 78.4265 946.397 77.1747 946.672 75.6047L947.133 72.8481C947.229 72.2702 947.521 71.808 948.006 71.4615C948.479 71.1246 949.004 71.0045 949.582 71.1011L949.634 71.1098C950.2 71.2046 950.657 71.489 951.006 71.9631C951.352 72.4488 951.477 72.9806 951.38 73.5585L950.919 76.3151C950.361 79.6555 948.808 81.9799 946.26 83.2885C947.184 84.0847 947.949 85.2998 948.555 86.9339C949.176 88.6181 949.338 90.3501 949.041 92.1301L948.298 96.5684C948.202 97.1463 947.917 97.6037 947.445 97.9406C946.959 98.2871 946.427 98.412 945.85 98.3154L945.815 98.3096C945.237 98.2129 944.775 97.9217 944.428 97.436C944.091 96.9638 943.971 96.4388 944.068 95.8609L944.81 91.4225C945.062 89.8487 944.721 88.4074 943.787 87.0988C942.851 85.8017 941.592 85.0207 940.008 84.7558L937.46 84.3296L935.763 94.4719C935.665 95.0613 935.375 95.5178 934.893 95.8412C934.407 96.1877 933.881 96.3135 933.315 96.2188L933.263 96.2101C932.696 96.1154 932.24 95.8252 931.893 95.3395C931.543 94.8769 931.417 94.3509 931.516 93.7614L935.343 70.8762C935.44 70.2983 935.731 69.8361 936.217 69.4896C936.701 69.1547 937.226 69.0345 937.792 69.1293L937.844 69.138ZM958.108 84.2721L966.377 85.6553C966.944 85.75 967.401 86.0344 967.75 86.5086C968.096 86.9943 968.221 87.5261 968.124 88.104L968.119 88.1386C968.022 88.7166 967.731 89.1788 967.245 89.5253C966.761 89.8602 966.236 89.9803 965.67 89.8856L957.4 88.5024L956.548 93.5995C956.451 94.1775 956.571 94.7025 956.908 95.1747C957.245 95.6469 957.702 95.9313 958.28 96.028L964.469 97.0632C965.036 97.1579 965.492 97.4482 965.839 97.9338C966.185 98.4195 966.31 98.9513 966.213 99.5292L966.208 99.5639C966.109 100.153 965.819 100.61 965.337 100.933C964.851 101.28 964.325 101.406 963.759 101.311L957.57 100.276C955.824 99.9837 954.437 99.116 953.407 97.6724C952.377 96.2288 952.008 94.6344 952.3 92.8891L954.712 78.4645C955.004 76.7192 955.872 75.3316 957.316 74.3017C958.759 73.2718 960.354 72.9029 962.099 73.1948L968.288 74.23C968.855 74.3247 969.311 74.6149 969.658 75.1006C970.008 75.5632 970.134 76.0892 970.035 76.6787L970.03 76.7134C969.933 77.2913 969.642 77.7535 969.156 78.1C968.67 78.4465 968.144 78.5724 967.578 78.4776L961.389 77.4424C960.811 77.3458 960.286 77.4659 959.813 77.8027C959.341 78.1396 959.057 78.597 958.96 79.1749L958.108 84.2721ZM988.563 79.8132C988.466 80.3912 988.175 80.8534 987.69 81.1999C987.217 81.5367 986.692 81.6568 986.114 81.5602L981.884 80.8526L978.413 101.605C978.316 102.183 978.032 102.641 977.56 102.978C977.074 103.324 976.542 103.449 975.964 103.352L975.93 103.347C975.352 103.25 974.89 102.959 974.543 102.473C974.206 102.001 974.086 101.476 974.183 100.898L977.654 80.1451L973.424 79.4375C972.857 79.3428 972.4 79.0584 972.051 78.5842C971.705 78.0986 971.58 77.5668 971.677 76.9888L971.682 76.9542C971.779 76.3763 972.07 75.9141 972.556 75.5676C973.04 75.2326 973.565 75.1125 974.131 75.2072L986.822 77.3299C987.4 77.4265 987.857 77.711 988.194 78.1832C988.541 78.6689 988.666 79.2007 988.569 79.7786L988.563 79.8132Z" fill="white"/>
</svg>
